<svg xmlns="http://www.w3.org/2000/svg" viewBox="-28.0 -770.0 4373.0 1090.0" width="600" height="150" role="img" aria-label="restage">
  <g style="isolation:isolate">
    <path fill="#FF6E5A" opacity="0.92" transform="scale(1,-1)" d="M42 0V120H144V376H54V496H264V424H282Q296 465 330.0 487.5Q364 510 410 510Q484 510 529.0 463.5Q574 417 574 322V300L444 288V302Q444 343 423.0 367.5Q402 392 360 392Q318 392 294.0 363.0Q270 334 270 280V120H384V0ZM923 -14Q849 -14 792.0 17.5Q735 49 703.0 108.0Q671 167 671 250V256Q671 332 705.0 389.0Q739 446 795.5 478.0Q852 510 921 510Q985 510 1031.0 488.0Q1077 466 1106.5 431.0Q1136 396 1150.5 354.5Q1165 313 1165 274V207H801Q803 163 838.0 134.5Q873 106 921 106Q968 106 993.5 123.0Q1019 140 1029 162L1137 102Q1126 77 1100.5 50.0Q1075 23 1032.0 4.5Q989 -14 923 -14ZM803 315H1037Q1031 350 999.5 373.0Q968 396 920 396Q873 396 842.5 371.5Q812 347 803 315ZM1542 -14Q1465 -14 1417.5 11.0Q1370 36 1345.5 72.0Q1321 108 1314 142L1430 180Q1438 149 1464.0 124.5Q1490 100 1542 100Q1589 100 1606.5 114.5Q1624 129 1624 146Q1624 166 1603.0 181.0Q1582 196 1519 201Q1436 208 1386.0 245.0Q1336 282 1336 352V358Q1336 407 1363.0 441.0Q1390 475 1433.0 492.5Q1476 510 1524 510Q1587 510 1628.0 490.5Q1669 471 1692.5 442.0Q1716 413 1726 384L1612 338Q1603 365 1581.0 380.5Q1559 396 1524 396Q1493 396 1476.5 384.5Q1460 373 1460 356Q1460 332 1485.0 322.0Q1510 312 1576 304Q1652 296 1700.0 258.5Q1748 221 1748 154V148Q1748 75 1694.0 30.5Q1640 -14 1542 -14ZM2124 0Q2090 0 2068.5 22.0Q2047 44 2047 78V376H1900V496H2047V700H2173V496H2352V376H2173V150Q2173 120 2200 120H2334V0ZM2707 -14Q2648 -14 2598.0 16.0Q2548 46 2518.0 103.0Q2488 160 2488 240V256Q2488 335 2517.0 392.0Q2546 449 2594.5 479.5Q2643 510 2701 510Q2754 510 2786.5 492.0Q2819 474 2838 436H2856V496H2982V150Q2982 120 3009 120H3028V0H2942Q2908 0 2886.5 20.5Q2865 41 2865 72H2847Q2828 26 2791.5 6.0Q2755 -14 2707 -14ZM2735 106Q2790 106 2823.0 142.5Q2856 179 2856 242V254Q2856 317 2823.0 353.5Q2790 390 2735 390Q2680 390 2647.0 353.5Q2614 317 2614 254V242Q2614 179 2647.0 142.5Q2680 106 2735 106ZM3207 -200V-80H3465Q3492 -80 3492 -50V72H3474Q3459 39 3424.5 12.5Q3390 -14 3319 -14Q3258 -14 3209.0 15.5Q3160 45 3131.0 101.5Q3102 158 3102 239V257Q3102 337 3132.5 393.5Q3163 450 3213.5 480.0Q3264 510 3324 510Q3384 510 3419.5 487.5Q3455 465 3474 424H3492V496H3618V-122Q3618 -156 3596.5 -178.0Q3575 -200 3541 -200ZM3360 106Q3419 106 3455.5 143.5Q3492 181 3492 242V254Q3492 315 3455.5 352.5Q3419 390 3360 390Q3302 390 3265.0 353.0Q3228 316 3228 254V242Q3228 180 3265.0 143.0Q3302 106 3360 106ZM3983 -14Q3909 -14 3852.0 17.5Q3795 49 3763.0 108.0Q3731 167 3731 250V256Q3731 332 3765.0 389.0Q3799 446 3855.5 478.0Q3912 510 3981 510Q4045 510 4091.0 488.0Q4137 466 4166.5 431.0Q4196 396 4210.5 354.5Q4225 313 4225 274V207H3861Q3863 163 3898.0 134.5Q3933 106 3981 106Q4028 106 4053.5 123.0Q4079 140 4089 162L4197 102Q4186 77 4160.5 50.0Q4135 23 4092.0 4.5Q4049 -14 3983 -14ZM3863 315H4097Q4091 350 4059.5 373.0Q4028 396 3980 396Q3933 396 3902.5 371.5Q3872 347 3863 315Z"/>
    <g style="mix-blend-mode:multiply">
      <path fill="#119E8E" opacity="0.92" transform="scale(1,-1)" d="M42 0V120H144V376H54V496H264V424H282Q296 465 330.0 487.5Q364 510 410 510Q484 510 529.0 463.5Q574 417 574 322V300L444 288V302Q444 343 423.0 367.5Q402 392 360 392Q318 392 294.0 363.0Q270 334 270 280V120H384V0ZM923 -14Q849 -14 792.0 17.5Q735 49 703.0 108.0Q671 167 671 250V256Q671 332 705.0 389.0Q739 446 795.5 478.0Q852 510 921 510Q985 510 1031.0 488.0Q1077 466 1106.5 431.0Q1136 396 1150.5 354.5Q1165 313 1165 274V207H801Q803 163 838.0 134.5Q873 106 921 106Q968 106 993.5 123.0Q1019 140 1029 162L1137 102Q1126 77 1100.5 50.0Q1075 23 1032.0 4.5Q989 -14 923 -14ZM803 315H1037Q1031 350 999.5 373.0Q968 396 920 396Q873 396 842.5 371.5Q812 347 803 315ZM1542 -14Q1465 -14 1417.5 11.0Q1370 36 1345.5 72.0Q1321 108 1314 142L1430 180Q1438 149 1464.0 124.5Q1490 100 1542 100Q1589 100 1606.5 114.5Q1624 129 1624 146Q1624 166 1603.0 181.0Q1582 196 1519 201Q1436 208 1386.0 245.0Q1336 282 1336 352V358Q1336 407 1363.0 441.0Q1390 475 1433.0 492.5Q1476 510 1524 510Q1587 510 1628.0 490.5Q1669 471 1692.5 442.0Q1716 413 1726 384L1612 338Q1603 365 1581.0 380.5Q1559 396 1524 396Q1493 396 1476.5 384.5Q1460 373 1460 356Q1460 332 1485.0 322.0Q1510 312 1576 304Q1652 296 1700.0 258.5Q1748 221 1748 154V148Q1748 75 1694.0 30.5Q1640 -14 1542 -14ZM2124 0Q2090 0 2068.5 22.0Q2047 44 2047 78V376H1900V496H2047V700H2173V496H2352V376H2173V150Q2173 120 2200 120H2334V0ZM2707 -14Q2648 -14 2598.0 16.0Q2548 46 2518.0 103.0Q2488 160 2488 240V256Q2488 335 2517.0 392.0Q2546 449 2594.5 479.5Q2643 510 2701 510Q2754 510 2786.5 492.0Q2819 474 2838 436H2856V496H2982V150Q2982 120 3009 120H3028V0H2942Q2908 0 2886.5 20.5Q2865 41 2865 72H2847Q2828 26 2791.5 6.0Q2755 -14 2707 -14ZM2735 106Q2790 106 2823.0 142.5Q2856 179 2856 242V254Q2856 317 2823.0 353.5Q2790 390 2735 390Q2680 390 2647.0 353.5Q2614 317 2614 254V242Q2614 179 2647.0 142.5Q2680 106 2735 106ZM3207 -200V-80H3465Q3492 -80 3492 -50V72H3474Q3459 39 3424.5 12.5Q3390 -14 3319 -14Q3258 -14 3209.0 15.5Q3160 45 3131.0 101.5Q3102 158 3102 239V257Q3102 337 3132.5 393.5Q3163 450 3213.5 480.0Q3264 510 3324 510Q3384 510 3419.5 487.5Q3455 465 3474 424H3492V496H3618V-122Q3618 -156 3596.5 -178.0Q3575 -200 3541 -200ZM3360 106Q3419 106 3455.5 143.5Q3492 181 3492 242V254Q3492 315 3455.5 352.5Q3419 390 3360 390Q3302 390 3265.0 353.0Q3228 316 3228 254V242Q3228 180 3265.0 143.0Q3302 106 3360 106ZM3983 -14Q3909 -14 3852.0 17.5Q3795 49 3763.0 108.0Q3731 167 3731 250V256Q3731 332 3765.0 389.0Q3799 446 3855.5 478.0Q3912 510 3981 510Q4045 510 4091.0 488.0Q4137 466 4166.5 431.0Q4196 396 4210.5 354.5Q4225 313 4225 274V207H3861Q3863 163 3898.0 134.5Q3933 106 3981 106Q4028 106 4053.5 123.0Q4079 140 4089 162L4197 102Q4186 77 4160.5 50.0Q4135 23 4092.0 4.5Q4049 -14 3983 -14ZM3863 315H4097Q4091 350 4059.5 373.0Q4028 396 3980 396Q3933 396 3902.5 371.5Q3872 347 3863 315Z"/>
      <animateTransform attributeName="transform" attributeType="XML" type="translate"
        values="50,50; -50,-50; 50,50" keyTimes="0; 0.5; 1"
        calcMode="spline" keySplines="0.37 0 0.63 1; 0.37 0 0.63 1"
        dur="4.0s" repeatCount="indefinite"/>
    </g>
  </g>
</svg>
