<svg xmlns="http://www.w3.org/2000/svg" viewBox="-7.0 -835.0 5638.0 1180.0" width="760" height="159" role="img" aria-label="restage">
  <g style="isolation:isolate">
    <path fill="#FF7E6B" opacity="0.92" transform="scale(1,-1)" d="M63.0 0.0V180.0H216.0V564.0H81.0V744.0H396.0V636.0H423.0Q444.0 697.5 495.0 731.25Q546.0 765.0 615.0 765.0Q726.0 765.0 793.5 695.25Q861.0 625.5 861.0 483.0V450.0L666.0 432.0V453.0Q666.0 514.5 634.5 551.25Q603.0 588.0 540.0 588.0Q477.0 588.0 441.0 544.5Q405.0 501.0 405.0 420.0V180.0H576.0V0.0ZM1303.0 0.0V120.0H1405.0V376.0H1315.0V496.0H1525.0V424.0H1543.0Q1557.0 465.0 1591.0 487.5Q1625.0 510.0 1671.0 510.0Q1745.0 510.0 1790.0 463.5Q1835.0 417.0 1835.0 322.0V300.0L1705.0 288.0V302.0Q1705.0 343.0 1684.0 367.5Q1663.0 392.0 1621.0 392.0Q1579.0 392.0 1555.0 363.0Q1531.0 334.0 1531.0 280.0V120.0H1645.0V0.0ZM2184.0 -14.0Q2110.0 -14.0 2053.0 17.5Q1996.0 49.0 1964.0 108.0Q1932.0 167.0 1932.0 250.0V256.0Q1932.0 332.0 1966.0 389.0Q2000.0 446.0 2056.5 478.0Q2113.0 510.0 2182.0 510.0Q2246.0 510.0 2292.0 488.0Q2338.0 466.0 2367.5 431.0Q2397.0 396.0 2411.5 354.5Q2426.0 313.0 2426.0 274.0V207.0H2062.0Q2064.0 163.0 2099.0 134.5Q2134.0 106.0 2182.0 106.0Q2229.0 106.0 2254.5 123.0Q2280.0 140.0 2290.0 162.0L2398.0 102.0Q2387.0 77.0 2361.5 50.0Q2336.0 23.0 2293.0 4.5Q2250.0 -14.0 2184.0 -14.0ZM2064.0 315.0H2298.0Q2292.0 350.0 2260.5 373.0Q2229.0 396.0 2181.0 396.0Q2134.0 396.0 2103.5 371.5Q2073.0 347.0 2064.0 315.0ZM2803.0 -14.0Q2726.0 -14.0 2678.5 11.0Q2631.0 36.0 2606.5 72.0Q2582.0 108.0 2575.0 142.0L2691.0 180.0Q2699.0 149.0 2725.0 124.5Q2751.0 100.0 2803.0 100.0Q2850.0 100.0 2867.5 114.5Q2885.0 129.0 2885.0 146.0Q2885.0 166.0 2864.0 181.0Q2843.0 196.0 2780.0 201.0Q2697.0 208.0 2647.0 245.0Q2597.0 282.0 2597.0 352.0V358.0Q2597.0 407.0 2624.0 441.0Q2651.0 475.0 2694.0 492.5Q2737.0 510.0 2785.0 510.0Q2848.0 510.0 2889.0 490.5Q2930.0 471.0 2953.5 442.0Q2977.0 413.0 2987.0 384.0L2873.0 338.0Q2864.0 365.0 2842.0 380.5Q2820.0 396.0 2785.0 396.0Q2754.0 396.0 2737.5 384.5Q2721.0 373.0 2721.0 356.0Q2721.0 332.0 2746.0 322.0Q2771.0 312.0 2837.0 304.0Q2913.0 296.0 2961.0 258.5Q3009.0 221.0 3009.0 154.0V148.0Q3009.0 75.0 2955.0 30.5Q2901.0 -14.0 2803.0 -14.0ZM3385.0 0.0Q3351.0 0.0 3329.5 22.0Q3308.0 44.0 3308.0 78.0V376.0H3161.0V496.0H3308.0V700.0H3434.0V496.0H3613.0V376.0H3434.0V150.0Q3434.0 120.0 3461.0 120.0H3595.0V0.0ZM3968.0 -14.0Q3909.0 -14.0 3859.0 16.0Q3809.0 46.0 3779.0 103.0Q3749.0 160.0 3749.0 240.0V256.0Q3749.0 335.0 3778.0 392.0Q3807.0 449.0 3855.5 479.5Q3904.0 510.0 3962.0 510.0Q4015.0 510.0 4047.5 492.0Q4080.0 474.0 4099.0 436.0H4117.0V496.0H4243.0V150.0Q4243.0 120.0 4270.0 120.0H4289.0V0.0H4203.0Q4169.0 0.0 4147.5 20.5Q4126.0 41.0 4126.0 72.0H4108.0Q4089.0 26.0 4052.5 6.0Q4016.0 -14.0 3968.0 -14.0ZM3996.0 106.0Q4051.0 106.0 4084.0 142.5Q4117.0 179.0 4117.0 242.0V254.0Q4117.0 317.0 4084.0 353.5Q4051.0 390.0 3996.0 390.0Q3941.0 390.0 3908.0 353.5Q3875.0 317.0 3875.0 254.0V242.0Q3875.0 179.0 3908.0 142.5Q3941.0 106.0 3996.0 106.0ZM4468.0 -200.0V-80.0H4726.0Q4753.0 -80.0 4753.0 -50.0V72.0H4735.0Q4720.0 39.0 4685.5 12.5Q4651.0 -14.0 4580.0 -14.0Q4519.0 -14.0 4470.0 15.5Q4421.0 45.0 4392.0 101.5Q4363.0 158.0 4363.0 239.0V257.0Q4363.0 337.0 4393.5 393.5Q4424.0 450.0 4474.5 480.0Q4525.0 510.0 4585.0 510.0Q4645.0 510.0 4680.5 487.5Q4716.0 465.0 4735.0 424.0H4753.0V496.0H4879.0V-122.0Q4879.0 -156.0 4857.5 -178.0Q4836.0 -200.0 4802.0 -200.0ZM4621.0 106.0Q4680.0 106.0 4716.5 143.5Q4753.0 181.0 4753.0 242.0V254.0Q4753.0 315.0 4716.5 352.5Q4680.0 390.0 4621.0 390.0Q4563.0 390.0 4526.0 353.0Q4489.0 316.0 4489.0 254.0V242.0Q4489.0 180.0 4526.0 143.0Q4563.0 106.0 4621.0 106.0ZM5244.0 -14.0Q5170.0 -14.0 5113.0 17.5Q5056.0 49.0 5024.0 108.0Q4992.0 167.0 4992.0 250.0V256.0Q4992.0 332.0 5026.0 389.0Q5060.0 446.0 5116.5 478.0Q5173.0 510.0 5242.0 510.0Q5306.0 510.0 5352.0 488.0Q5398.0 466.0 5427.5 431.0Q5457.0 396.0 5471.5 354.5Q5486.0 313.0 5486.0 274.0V207.0H5122.0Q5124.0 163.0 5159.0 134.5Q5194.0 106.0 5242.0 106.0Q5289.0 106.0 5314.5 123.0Q5340.0 140.0 5350.0 162.0L5458.0 102.0Q5447.0 77.0 5421.5 50.0Q5396.0 23.0 5353.0 4.5Q5310.0 -14.0 5244.0 -14.0ZM5124.0 315.0H5358.0Q5352.0 350.0 5320.5 373.0Q5289.0 396.0 5241.0 396.0Q5194.0 396.0 5163.5 371.5Q5133.0 347.0 5124.0 315.0Z"/>
    <g style="mix-blend-mode:screen">
      <path fill="#34D399" opacity="0.92" transform="scale(1,-1)" d="M63.0 0.0V180.0H216.0V564.0H81.0V744.0H396.0V636.0H423.0Q444.0 697.5 495.0 731.25Q546.0 765.0 615.0 765.0Q726.0 765.0 793.5 695.25Q861.0 625.5 861.0 483.0V450.0L666.0 432.0V453.0Q666.0 514.5 634.5 551.25Q603.0 588.0 540.0 588.0Q477.0 588.0 441.0 544.5Q405.0 501.0 405.0 420.0V180.0H576.0V0.0ZM1303.0 0.0V120.0H1405.0V376.0H1315.0V496.0H1525.0V424.0H1543.0Q1557.0 465.0 1591.0 487.5Q1625.0 510.0 1671.0 510.0Q1745.0 510.0 1790.0 463.5Q1835.0 417.0 1835.0 322.0V300.0L1705.0 288.0V302.0Q1705.0 343.0 1684.0 367.5Q1663.0 392.0 1621.0 392.0Q1579.0 392.0 1555.0 363.0Q1531.0 334.0 1531.0 280.0V120.0H1645.0V0.0ZM2184.0 -14.0Q2110.0 -14.0 2053.0 17.5Q1996.0 49.0 1964.0 108.0Q1932.0 167.0 1932.0 250.0V256.0Q1932.0 332.0 1966.0 389.0Q2000.0 446.0 2056.5 478.0Q2113.0 510.0 2182.0 510.0Q2246.0 510.0 2292.0 488.0Q2338.0 466.0 2367.5 431.0Q2397.0 396.0 2411.5 354.5Q2426.0 313.0 2426.0 274.0V207.0H2062.0Q2064.0 163.0 2099.0 134.5Q2134.0 106.0 2182.0 106.0Q2229.0 106.0 2254.5 123.0Q2280.0 140.0 2290.0 162.0L2398.0 102.0Q2387.0 77.0 2361.5 50.0Q2336.0 23.0 2293.0 4.5Q2250.0 -14.0 2184.0 -14.0ZM2064.0 315.0H2298.0Q2292.0 350.0 2260.5 373.0Q2229.0 396.0 2181.0 396.0Q2134.0 396.0 2103.5 371.5Q2073.0 347.0 2064.0 315.0ZM2803.0 -14.0Q2726.0 -14.0 2678.5 11.0Q2631.0 36.0 2606.5 72.0Q2582.0 108.0 2575.0 142.0L2691.0 180.0Q2699.0 149.0 2725.0 124.5Q2751.0 100.0 2803.0 100.0Q2850.0 100.0 2867.5 114.5Q2885.0 129.0 2885.0 146.0Q2885.0 166.0 2864.0 181.0Q2843.0 196.0 2780.0 201.0Q2697.0 208.0 2647.0 245.0Q2597.0 282.0 2597.0 352.0V358.0Q2597.0 407.0 2624.0 441.0Q2651.0 475.0 2694.0 492.5Q2737.0 510.0 2785.0 510.0Q2848.0 510.0 2889.0 490.5Q2930.0 471.0 2953.5 442.0Q2977.0 413.0 2987.0 384.0L2873.0 338.0Q2864.0 365.0 2842.0 380.5Q2820.0 396.0 2785.0 396.0Q2754.0 396.0 2737.5 384.5Q2721.0 373.0 2721.0 356.0Q2721.0 332.0 2746.0 322.0Q2771.0 312.0 2837.0 304.0Q2913.0 296.0 2961.0 258.5Q3009.0 221.0 3009.0 154.0V148.0Q3009.0 75.0 2955.0 30.5Q2901.0 -14.0 2803.0 -14.0ZM3385.0 0.0Q3351.0 0.0 3329.5 22.0Q3308.0 44.0 3308.0 78.0V376.0H3161.0V496.0H3308.0V700.0H3434.0V496.0H3613.0V376.0H3434.0V150.0Q3434.0 120.0 3461.0 120.0H3595.0V0.0ZM3968.0 -14.0Q3909.0 -14.0 3859.0 16.0Q3809.0 46.0 3779.0 103.0Q3749.0 160.0 3749.0 240.0V256.0Q3749.0 335.0 3778.0 392.0Q3807.0 449.0 3855.5 479.5Q3904.0 510.0 3962.0 510.0Q4015.0 510.0 4047.5 492.0Q4080.0 474.0 4099.0 436.0H4117.0V496.0H4243.0V150.0Q4243.0 120.0 4270.0 120.0H4289.0V0.0H4203.0Q4169.0 0.0 4147.5 20.5Q4126.0 41.0 4126.0 72.0H4108.0Q4089.0 26.0 4052.5 6.0Q4016.0 -14.0 3968.0 -14.0ZM3996.0 106.0Q4051.0 106.0 4084.0 142.5Q4117.0 179.0 4117.0 242.0V254.0Q4117.0 317.0 4084.0 353.5Q4051.0 390.0 3996.0 390.0Q3941.0 390.0 3908.0 353.5Q3875.0 317.0 3875.0 254.0V242.0Q3875.0 179.0 3908.0 142.5Q3941.0 106.0 3996.0 106.0ZM4468.0 -200.0V-80.0H4726.0Q4753.0 -80.0 4753.0 -50.0V72.0H4735.0Q4720.0 39.0 4685.5 12.5Q4651.0 -14.0 4580.0 -14.0Q4519.0 -14.0 4470.0 15.5Q4421.0 45.0 4392.0 101.5Q4363.0 158.0 4363.0 239.0V257.0Q4363.0 337.0 4393.5 393.5Q4424.0 450.0 4474.5 480.0Q4525.0 510.0 4585.0 510.0Q4645.0 510.0 4680.5 487.5Q4716.0 465.0 4735.0 424.0H4753.0V496.0H4879.0V-122.0Q4879.0 -156.0 4857.5 -178.0Q4836.0 -200.0 4802.0 -200.0ZM4621.0 106.0Q4680.0 106.0 4716.5 143.5Q4753.0 181.0 4753.0 242.0V254.0Q4753.0 315.0 4716.5 352.5Q4680.0 390.0 4621.0 390.0Q4563.0 390.0 4526.0 353.0Q4489.0 316.0 4489.0 254.0V242.0Q4489.0 180.0 4526.0 143.0Q4563.0 106.0 4621.0 106.0ZM5244.0 -14.0Q5170.0 -14.0 5113.0 17.5Q5056.0 49.0 5024.0 108.0Q4992.0 167.0 4992.0 250.0V256.0Q4992.0 332.0 5026.0 389.0Q5060.0 446.0 5116.5 478.0Q5173.0 510.0 5242.0 510.0Q5306.0 510.0 5352.0 488.0Q5398.0 466.0 5427.5 431.0Q5457.0 396.0 5471.5 354.5Q5486.0 313.0 5486.0 274.0V207.0H5122.0Q5124.0 163.0 5159.0 134.5Q5194.0 106.0 5242.0 106.0Q5289.0 106.0 5314.5 123.0Q5340.0 140.0 5350.0 162.0L5458.0 102.0Q5447.0 77.0 5421.5 50.0Q5396.0 23.0 5353.0 4.5Q5310.0 -14.0 5244.0 -14.0ZM5124.0 315.0H5358.0Q5352.0 350.0 5320.5 373.0Q5289.0 396.0 5241.0 396.0Q5194.0 396.0 5163.5 371.5Q5133.0 347.0 5124.0 315.0Z"/>
      <animateTransform attributeName="transform" attributeType="XML" type="translate"
        values="75,75; -75,-75; 75,75" keyTimes="0; 0.5; 1"
        calcMode="spline" keySplines="0.37 0 0.63 1; 0.37 0 0.63 1"
        dur="4.0s" repeatCount="indefinite"/>
    </g>
  </g>
</svg>
